# xmcd
#
# Track frame offsets:
#	182
#	17822
#	38675
#
# Disc length: 941 seconds
#
# Revision: 1
# Processed by: cddbd v1.4PL0 Copyright (c) Steve Scherf et al.
# Submitted via: EasyCDDAExtractor 5.0.7
#
DISCID=1903ab03
DTITLE=Vanessa Williams - The Way That You Love
DYEAR=1995
DGENRE=Acoustic
TTITLE0=The Way That You Love(20 Fingers Radio Mix)
TTITLE1=The Way That You Love(Love Me Remix)
TTITLE2=The Way That You Love(20 Fingers Club Mix)
EXTD=
EXTT0=
EXTT1=
EXTT2=
PLAYORDER=
